<svg xmlns="http://www.w3.org/2000/svg" xmlns:xlink="http://www.w3.org/1999/xlink" xmlns:lucid="lucid" width="1600" height="806.5"><g transform="translate(-100 -253.5)" lucid:page-tab-id="0_0"><path d="M1160 279.5c0-3.3 2.7-6 6-6h508c3.3 0 6 2.7 6 6v288c0 3.3-2.7 6-6 6h-508c-3.3 0-6-2.7-6-6z" fill-opacity="0"/><path d="M1196.8 273.5h30.78m15.4 0h30.78m15.4 0h30.78m15.4 0h30.78m15.4 0h30.78m15.4 0h30.78m15.4 0h30.8m15.38 0h30.8m15.38 0h30.8m15.38 0h30.8m15.4 0H1674l3.03.82 2.15 2.15.82 3.03v16m0 16v32m0 16v32m0 16v32m0 16v32m0 16v32m0 16v16l-.82 3.03-2.15 2.15-3.03.82h-15.4m-15.4 0h-30.78m-15.4 0h-30.78m-15.4 0h-30.78m-15.4 0h-30.78m-15.4 0h-30.78m-15.4 0h-30.78m-15.4 0h-30.8m-15.38 0h-30.8m-15.38 0h-30.8m-15.38 0h-30.8m-15.4 0H1166l-3.03-.82-2.15-2.15-.82-3.03v-16m0-16v-32m0-16v-32m0-16v-32m0-16v-32m0-16v-32m0-16v-16l.82-3.03 2.15-2.15 3.03-.82h15.4" stroke="#5e5e5e" stroke-width="3" fill="none"/><path d="M1260 746c0-3.3 2.7-6 6-6h228c3.3 0 6 2.7 6 6v88c0 3.3-2.7 6-6 6h-228c-3.3 0-6-2.7-6-6z" stroke="#5e5e5e" stroke-width="3" fill="#fff"/><use xlink:href="#a" transform="matrix(1,0,0,1,1272,752) translate(35.376543209876544 29.65277777777778)"/><use xlink:href="#b" transform="matrix(1,0,0,1,1272,752) translate(66.08641975308642 56.31944444444445)"/><path d="M1260 439.5c0-3.3 2.7-6 6-6h228c3.3 0 6 2.7 6 6v88c0 3.3-2.7 6-6 6h-228c-3.3 0-6-2.7-6-6z" stroke="#5e5e5e" stroke-width="3" fill="#fff"/><use xlink:href="#c" transform="matrix(1,0,0,1,1272,445.5) translate(67.32098765432099 41.52777777777778)"/><path d="M1380 553.5V720" stroke="#5e5e5e" stroke-width="2" fill="none"/><path d="M1380 538.24l4.64 14.26h-9.28zM1380 735.26l-4.64-14.26h9.28z" stroke="#5e5e5e" stroke-width="2" fill="#5e5e5e"/><path d="M1260 319.5c0-3.3 2.7-6 6-6h228c3.3 0 6 2.7 6 6v48c0 3.3-2.7 6-6 6h-228c-3.3 0-6-2.7-6-6z" stroke="#5e5e5e" stroke-width="3" fill="#fff"/><use xlink:href="#d" transform="matrix(1,0,0,1,1272,325.5) translate(56.858024691358025 22.27777777777778)"/><use xlink:href="#e" transform="matrix(1,0,0,1,1272,325.5) translate(106.17901234567901 22.27777777777778)"/><path d="M1380 431v-37.5" stroke="#5e5e5e" stroke-width="2" fill="none"/><path d="M1381 432h-2v-1.03h2z" fill="#5e5e5e"/><path d="M1380 378.24l4.64 14.26h-9.28z" stroke="#5e5e5e" stroke-width="2" fill="#5e5e5e"/><path d="M1500 279.5c0-3.3 2.7-6 6-6h168c3.3 0 6 2.7 6 6v48c0 3.3-2.7 6-6 6h-168c-3.3 0-6-2.7-6-6z" stroke="#000" stroke-opacity="0" stroke-width="3" fill="#fff" fill-opacity="0"/><use xlink:href="#f" transform="matrix(1,0,0,1,1505,278.5) translate(20.98765432098766 30.27777777777778)"/><use xlink:href="#g" transform="matrix(1,0,0,1,1505,278.5) translate(71.48148148148148 30.27777777777778)"/><path d="M980 686c0-3.3 2.7-6 6-6h688c3.3 0 6 2.7 6 6v228c0 3.3-2.7 6-6 6H986c-3.3 0-6-2.7-6-6z" fill-opacity="0"/><path d="M1016.58 680h30.58m15.28 0h30.58m15.3 0h30.57m15.28 0h30.58m15.28 0h30.58m15.3 0h30.57m15.28 0h30.58m15.28 0h30.58m15.3 0h30.57m15.28 0h30.58m15.28 0h30.58m15.3 0h30.57m15.28 0h30.58m15.28 0h30.58m15.3 0H1674l3.03.82 2.15 2.15.82 3.03v15.2m0 15.2v30.4m0 15.2v30.4m0 15.2V838m0 15.2v30.4m0 15.2V914l-.82 3.03-2.15 2.15-3.03.82h-15.3m-15.28 0h-30.58m-15.28 0h-30.58m-15.3 0h-30.57m-15.28 0h-30.58m-15.28 0h-30.58m-15.3 0h-30.57m-15.28 0h-30.58m-15.28 0h-30.58m-15.3 0h-30.57m-15.28 0h-30.58m-15.28 0h-30.58m-15.3 0h-30.57m-15.28 0h-30.58m-15.28 0h-30.58m-15.3 0H986l-3.03-.82-2.15-2.15L980 914v-15.2m0-15.2v-30.4m0-15.2v-30.4m0-15.2V762m0-15.2v-30.4m0-15.2V686l.82-3.03 2.15-2.15L986 680h15.3" stroke="#5e5e5e" stroke-width="3" fill="none"/><path d="M1531.43 686c0-3.3 2.68-6 6-6H1674c3.3 0 6 2.7 6 6v48c0 3.3-2.7 6-6 6h-136.57c-3.32 0-6-2.7-6-6z" stroke="#000" stroke-opacity="0" stroke-width="3" fill="#fff" fill-opacity="0"/><use xlink:href="#h" transform="matrix(1,0,0,1,1536.4285714285713,685) translate(37.49382716049383 30.27777777777778)"/><path d="M1020 746c0-3.3 2.7-6 6-6h128c3.3 0 6 2.7 6 6v88c0 3.3-2.7 6-6 6h-128c-3.3 0-6-2.7-6-6z" stroke="#5e5e5e" stroke-width="3" fill="#fff"/><use xlink:href="#i" transform="matrix(1,0,0,1,1032,752) translate(30.932098765432098 29.65277777777778)"/><use xlink:href="#j" transform="matrix(1,0,0,1,1032,752) translate(21.641975308641975 56.31944444444445)"/><path d="M1240 790h-60" stroke="#5e5e5e" stroke-width="2" fill="none"/><path d="M1255.26 790l-14.26 4.64v-9.28zM1164.74 790l14.26-4.64v9.28z" stroke="#5e5e5e" stroke-width="2" fill="#5e5e5e"/><path d="M440 906c0-3.3 2.7-6 6-6h168c3.3 0 6 2.7 6 6v88c0 3.3-2.7 6-6 6H446c-3.3 0-6-2.7-6-6z" stroke="#5e5e5e" stroke-width="3" fill="#fff"/><use xlink:href="#k" transform="matrix(1,0,0,1,452,912) translate(45.376543209876544 29.65277777777778)"/><use xlink:href="#l" transform="matrix(1,0,0,1,452,912) translate(23.7716049382716 56.31944444444445)"/><path d="M157.87 892.62c0 6.97-5.65 12.62-12.63 12.62-6.97 0-12.62-5.65-12.62-12.62 0-6.97 5.65-12.62 12.62-12.62 6.98 0 12.63 5.65 12.63 12.62z" stroke="#5e5e5e" stroke-width="3" fill="#fff"/><path d="M145.24 905.24v39.56c0 3.3 1.27 8.37 2.83 11.3L170.5 998m-25.26-47.2L120 998m0-80.13h50.5" stroke="#5e5e5e" stroke-width="3" fill="none"/><path d="M120 886c0-3.3 2.7-6 6-6h38.5c3.3 0 6 2.7 6 6v128c0 3.3-2.7 6-6 6H126c-3.3 0-6-2.7-6-6z" fill="none"/><use xlink:href="#m" transform="matrix(1,0,0,1,40,998) translate(82.10493827160494 17.77777777777778)"/><path d="M420 950H204.76" stroke="#5e5e5e" stroke-width="2" fill="none"/><path d="M435.26 950L421 954.64v-9.28zM189.5 950l14.26-4.64v9.28z" stroke="#5e5e5e" stroke-width="2" fill="#5e5e5e"/><path d="M460 746c0-3.3 2.7-6 6-6h128c3.3 0 6 2.7 6 6v88c0 3.3-2.7 6-6 6H466c-3.3 0-6-2.7-6-6z" stroke="#5e5e5e" stroke-width="3" fill="#fff"/><use xlink:href="#i" transform="matrix(1,0,0,1,472,752) translate(30.932098765432098 29.65277777777778)"/><use xlink:href="#j" transform="matrix(1,0,0,1,472,752) translate(21.641975308641975 56.31944444444445)"/><path d="M834.38 791H620v-2h214.38zm165.62 0h-70.36v-2H1000zM619 794.64L604.74 790l14.26-4.64z" fill="#5e5e5e"/><path d="M620 796l-18.5-6 18.5-6zm-12.03-6l10.03 3.26v-6.52zM1015.26 790l-14.26 4.64v-9.28z" fill="#5e5e5e"/><path d="M1018.5 790l-18.5 6v-12zm-16.5 3.26l10.03-3.26-10.03-3.26z" fill="#5e5e5e"/><use xlink:href="#n" transform="matrix(1,0,0,1,834.3840984042382,779.3333333333334) translate(0 14.222222222222223)"/><path d="M530 860v20" stroke="#5e5e5e" stroke-width="2" fill="none"/><path d="M530 844.74l4.64 14.26h-9.28zM530 895.26L525.36 881h9.28z" stroke="#5e5e5e" stroke-width="2" fill="#5e5e5e"/><path d="M380 686c0-3.3 2.7-6 6-6h388c3.3 0 6 2.7 6 6v348c0 3.3-2.7 6-6 6H386c-3.3 0-6-2.7-6-6z" fill-opacity="0"/><path d="M414.74 680h28.74m14.37 0h28.74m14.36 0h28.74m14.37 0h28.74m14.4 0h28.73m14.37 0h28.74m14.37 0h28.75m14.37 0h28.74m14.37 0H774l3.03.82 2.15 2.15.82 3.03v14.5m0 14.5v29m0 14.5v29m0 14.5v29m0 14.5v29m0 14.5v29m0 14.5v29m0 14.5v29m0 14.5v14.5l-.82 3.03-2.15 2.15-3.03.82h-14.37m-14.37 0h-28.74m-14.37 0H673.4m-14.36 0H630.3m-14.37 0H587.2m-14.4 0h-28.73m-14.37 0h-28.74m-14.37 0h-28.75m-14.37 0h-28.74m-14.37 0H386l-3.03-.82-2.15-2.15-.82-3.03v-14.5m0-14.5v-29m0-14.5v-29m0-14.5v-29m0-14.5v-29m0-14.5v-29m0-14.5v-29m0-14.5v-29m0-14.5V686l.82-3.03 2.15-2.15L386 680h14.37" stroke="#5e5e5e" stroke-width="3" fill="none"/><path d="M620 686c0-3.3 2.7-6 6-6h148c3.3 0 6 2.7 6 6v60c0 3.3-2.7 6-6 6H626c-3.3 0-6-2.7-6-6z" stroke="#000" stroke-opacity="0" stroke-width="3" fill="#fff" fill-opacity="0"/><g><use xlink:href="#o" transform="matrix(1,0,0,1,625,685) translate(10.339506172839506 37.15277777777778)"/></g><defs><path fill="#333" d="M240 0l2-218c-23 76-54 145-80 218h-23L58-218 59 0H30v-248h44l77 211c21-75 51-140 76-211h43V0h-30" id="p"/><path fill="#333" d="M24-231v-30h32v30H24zM24 0v-190h32V0H24" id="q"/><path fill="#333" d="M96-169c-40 0-48 33-48 73s9 75 48 75c24 0 41-14 43-38l32 2c-6 37-31 61-74 61-59 0-76-41-82-99-10-93 101-131 147-64 4 7 5 14 7 22l-32 3c-4-21-16-35-41-35" id="r"/><path fill="#333" d="M114-163C36-179 61-72 57 0H25l-1-190h30c1 12-1 29 2 39 6-27 23-49 58-41v29" id="s"/><path fill="#333" d="M100-194c62-1 85 37 85 99 1 63-27 99-86 99S16-35 15-95c0-66 28-99 85-99zM99-20c44 1 53-31 53-75 0-43-8-75-51-75s-53 32-53 75 10 74 51 75" id="t"/><path fill="#333" d="M117-194c89-4 53 116 60 194h-32v-121c0-31-8-49-39-48C34-167 62-67 57 0H25l-1-190h30c1 10-1 24 2 32 11-22 29-35 61-36" id="u"/><path fill="#333" d="M59-47c-2 24 18 29 38 22v24C64 9 27 4 27-40v-127H5v-23h24l9-43h21v43h35v23H59v120" id="v"/><path fill="#333" d="M24 0v-261h32V0H24" id="w"/><path fill="#333" d="M100-194c63 0 86 42 84 106H49c0 40 14 67 53 68 26 1 43-12 49-29l28 8c-11 28-37 45-77 45C44 4 14-33 15-96c1-61 26-98 85-98zm52 81c6-60-76-77-97-28-3 7-6 17-6 28h103" id="x"/><g id="a"><use transform="matrix(0.06172839506172839,0,0,0.06172839506172839,0,0)" xlink:href="#p"/><use transform="matrix(0.06172839506172839,0,0,0.06172839506172839,18.456790123456788,0)" xlink:href="#q"/><use transform="matrix(0.06172839506172839,0,0,0.06172839506172839,23.33333333333333,0)" xlink:href="#r"/><use transform="matrix(0.06172839506172839,0,0,0.06172839506172839,34.44444444444444,0)" xlink:href="#s"/><use transform="matrix(0.06172839506172839,0,0,0.06172839506172839,41.79012345679012,0)" xlink:href="#t"/><use transform="matrix(0.06172839506172839,0,0,0.06172839506172839,54.1358024691358,0)" xlink:href="#r"/><use transform="matrix(0.06172839506172839,0,0,0.06172839506172839,65.24691358024691,0)" xlink:href="#t"/><use transform="matrix(0.06172839506172839,0,0,0.06172839506172839,77.5925925925926,0)" xlink:href="#u"/><use transform="matrix(0.06172839506172839,0,0,0.06172839506172839,89.93827160493828,0)" xlink:href="#v"/><use transform="matrix(0.06172839506172839,0,0,0.06172839506172839,96.11111111111111,0)" xlink:href="#s"/><use transform="matrix(0.06172839506172839,0,0,0.06172839506172839,103.4567901234568,0)" xlink:href="#t"/><use transform="matrix(0.06172839506172839,0,0,0.06172839506172839,115.80246913580248,0)" xlink:href="#w"/><use transform="matrix(0.06172839506172839,0,0,0.06172839506172839,120.67901234567903,0)" xlink:href="#w"/><use transform="matrix(0.06172839506172839,0,0,0.06172839506172839,125.55555555555557,0)" xlink:href="#x"/><use transform="matrix(0.06172839506172839,0,0,0.06172839506172839,137.90123456790124,0)" xlink:href="#s"/></g><path fill="#333" d="M87 75C49 33 22-17 22-94c0-76 28-126 65-167h31c-38 41-64 92-64 168S80 34 118 75H87" id="y"/><path fill="#333" d="M30 0v-248h187v28H63v79h144v27H63v87h162V0H30" id="z"/><path fill="#333" d="M185-189c-5-48-123-54-124 2 14 75 158 14 163 119 3 78-121 87-175 55-17-10-28-26-33-46l33-7c5 56 141 63 141-1 0-78-155-14-162-118-5-82 145-84 179-34 5 7 8 16 11 25" id="A"/><path fill="#333" d="M30-248c87 1 191-15 191 75 0 78-77 80-158 76V0H30v-248zm33 125c57 0 124 11 124-50 0-59-68-47-124-48v98" id="B"/><path fill="#333" d="M126-127c33 6 58 20 58 59 0 88-139 92-164 29-3-8-5-16-6-25l32-3c6 27 21 44 54 44 32 0 52-15 52-46 0-38-36-46-79-43v-28c39 1 72-4 72-42 0-27-17-43-46-43-28 0-47 15-49 41l-32-3c6-42 35-63 81-64 48-1 79 21 79 65 0 36-21 52-52 59" id="C"/><path fill="#333" d="M101-251c82-7 93 87 43 132L82-64C71-53 59-42 53-27h129V0H18c2-99 128-94 128-182 0-28-16-43-45-43s-46 15-49 41l-32-3c6-41 34-60 81-64" id="D"/><path fill="#333" d="M33-261c38 41 65 92 65 168S71 34 33 75H2C39 34 66-17 66-93S39-220 2-261h31" id="E"/><g id="b"><use transform="matrix(0.06172839506172839,0,0,0.06172839506172839,0,0)" xlink:href="#y"/><use transform="matrix(0.06172839506172839,0,0,0.06172839506172839,7.345679012345679,0)" xlink:href="#z"/><use transform="matrix(0.06172839506172839,0,0,0.06172839506172839,22.160493827160494,0)" xlink:href="#A"/><use transform="matrix(0.06172839506172839,0,0,0.06172839506172839,36.9753086419753,0)" xlink:href="#B"/><use transform="matrix(0.06172839506172839,0,0,0.06172839506172839,51.79012345679011,0)" xlink:href="#C"/><use transform="matrix(0.06172839506172839,0,0,0.06172839506172839,64.1358024691358,0)" xlink:href="#D"/><use transform="matrix(0.06172839506172839,0,0,0.06172839506172839,76.48148148148148,0)" xlink:href="#E"/></g><path fill="#333" d="M127-220V0H93v-220H8v-28h204v28h-85" id="F"/><path fill="#333" d="M27 0v-27h64v-190l-56 39v-29l58-41h29v221h61V0H27" id="G"/><path fill="#333" d="M110-160c48 1 74 30 74 79 0 53-28 85-80 85-65 0-83-55-86-122-5-90 50-162 133-122 14 7 22 21 27 39l-31 6c-5-40-67-38-82-6-9 19-15 44-15 74 11-20 30-34 60-33zm-7 138c34 0 49-23 49-58s-16-56-50-56c-29 0-50 16-49 49 1 36 15 65 50 65" id="H"/><path fill="#333" d="M134-131c28 9 52 24 51 62-1 50-34 73-85 73S17-19 16-69c0-36 21-54 49-61-75-25-45-126 34-121 46 3 78 18 79 63 0 33-17 51-44 57zm-34-11c31 1 46-15 46-44 0-28-17-43-47-42-29 0-46 13-45 42 1 28 16 44 46 44zm1 122c35 0 51-18 51-52 0-30-18-46-53-46-33 0-51 17-51 47 0 34 19 51 53 51" id="I"/><g id="c"><use transform="matrix(0.06172839506172839,0,0,0.06172839506172839,0,0)" xlink:href="#F"/><use transform="matrix(0.06172839506172839,0,0,0.06172839506172839,13.518518518518517,0)" xlink:href="#p"/><use transform="matrix(0.06172839506172839,0,0,0.06172839506172839,31.9753086419753,0)" xlink:href="#G"/><use transform="matrix(0.06172839506172839,0,0,0.06172839506172839,44.32098765432098,0)" xlink:href="#H"/><use transform="matrix(0.06172839506172839,0,0,0.06172839506172839,56.66666666666666,0)" xlink:href="#C"/><use transform="matrix(0.06172839506172839,0,0,0.06172839506172839,69.01234567901234,0)" xlink:href="#I"/></g><path fill="#333" d="M30 0v-248h33v221h125V0H30" id="J"/><path fill="#333" d="M30-248c118-7 216 8 213 122C240-48 200 0 122 0H30v-248zM63-27c89 8 146-16 146-99s-60-101-146-95v194" id="K"/><g id="d"><use transform="matrix(0.06172839506172839,0,0,0.06172839506172839,0,0)" xlink:href="#J"/><use transform="matrix(0.06172839506172839,0,0,0.06172839506172839,12.345679012345679,0)" xlink:href="#z"/><use transform="matrix(0.06172839506172839,0,0,0.06172839506172839,27.160493827160494,0)" xlink:href="#K"/></g><path fill="#333" d="M205 0l-28-72H64L36 0H1l101-248h38L239 0h-34zm-38-99l-47-123c-12 45-31 82-46 123h93" id="L"/><path fill="#333" d="M141-36C126-15 110 5 73 4 37 3 15-17 15-53c-1-64 63-63 125-63 3-35-9-54-41-54-24 1-41 7-42 31l-33-3c5-37 33-52 76-52 45 0 72 20 72 64v82c-1 20 7 32 28 27v20c-31 9-61-2-59-35zM48-53c0 20 12 33 32 33 41-3 63-29 60-74-43 2-92-5-92 41" id="M"/><path fill="#333" d="M179-190L93 31C79 59 56 82 12 73V49c39 6 53-20 64-50L1-190h34L92-34l54-156h33" id="N"/><g id="e"><use transform="matrix(0.06172839506172839,0,0,0.06172839506172839,0,0)" xlink:href="#L"/><use transform="matrix(0.06172839506172839,0,0,0.06172839506172839,14.814814814814813,0)" xlink:href="#s"/><use transform="matrix(0.06172839506172839,0,0,0.06172839506172839,22.160493827160494,0)" xlink:href="#s"/><use transform="matrix(0.06172839506172839,0,0,0.06172839506172839,29.50617283950617,0)" xlink:href="#M"/><use transform="matrix(0.06172839506172839,0,0,0.06172839506172839,41.85185185185185,0)" xlink:href="#N"/></g><path fill="#333" d="M24 0v-248h52v208h133V0H24" id="O"/><path fill="#333" d="M24 0v-248h195v40H76v63h132v40H76v65h150V0H24" id="P"/><path fill="#333" d="M24-248c120-7 223 5 221 122C244-46 201 0 124 0H24v-248zM76-40c74 7 117-18 117-86 0-67-45-88-117-82v168" id="Q"/><g id="f"><use transform="matrix(0.06172839506172839,0,0,0.06172839506172839,0,0)" xlink:href="#O"/><use transform="matrix(0.06172839506172839,0,0,0.06172839506172839,13.518518518518517,0)" xlink:href="#P"/><use transform="matrix(0.06172839506172839,0,0,0.06172839506172839,28.33333333333333,0)" xlink:href="#Q"/></g><path fill="#333" d="M230 0l2-204L168 0h-37L68-204 70 0H24v-248h70l56 185 57-185h69V0h-46" id="R"/><path fill="#333" d="M110-194c64 0 96 36 96 99 0 64-35 99-97 99-61 0-95-36-95-99 0-62 34-99 96-99zm-1 164c35 0 45-28 45-65 0-40-10-65-43-65-34 0-45 26-45 65 0 36 10 65 43 65" id="S"/><path fill="#333" d="M88-194c31-1 46 15 58 34l-1-101h50l1 261h-48c-2-10 0-23-3-31C134-8 116 4 84 4 32 4 16-41 15-95c0-56 19-97 73-99zm17 164c33 0 40-30 41-66 1-37-9-64-41-64s-38 30-39 65c0 43 13 65 39 65" id="T"/><path fill="#333" d="M85 4C-2 5 27-109 22-190h50c7 57-23 150 33 157 60-5 35-97 40-157h50l1 190h-47c-2-12 1-28-3-38-12 25-28 42-61 42" id="U"/><path fill="#333" d="M25 0v-261h50V0H25" id="V"/><path fill="#333" d="M185-48c-13 30-37 53-82 52C43 2 14-33 14-96s30-98 90-98c62 0 83 45 84 108H66c0 31 8 55 39 56 18 0 30-7 34-22zm-45-69c5-46-57-63-70-21-2 6-4 13-4 21h74" id="W"/><g id="g"><use transform="matrix(0.06172839506172839,0,0,0.06172839506172839,0,0)" xlink:href="#R"/><use transform="matrix(0.06172839506172839,0,0,0.06172839506172839,18.456790123456788,0)" xlink:href="#S"/><use transform="matrix(0.06172839506172839,0,0,0.06172839506172839,31.9753086419753,0)" xlink:href="#T"/><use transform="matrix(0.06172839506172839,0,0,0.06172839506172839,45.49382716049382,0)" xlink:href="#U"/><use transform="matrix(0.06172839506172839,0,0,0.06172839506172839,59.01234567901234,0)" xlink:href="#V"/><use transform="matrix(0.06172839506172839,0,0,0.06172839506172839,65.18518518518518,0)" xlink:href="#W"/></g><path fill="#333" d="M182-130c37 4 62 22 62 59C244 23 116-4 24 0v-248c84 5 203-23 205 63 0 31-19 50-47 55zM76-148c40-3 101 13 101-30 0-44-60-28-101-31v61zm0 110c48-3 116 14 116-37 0-48-69-32-116-35v72" id="X"/><path fill="#333" d="M133-34C117-15 103 5 69 4 32 3 11-16 11-54c-1-60 55-63 116-61 1-26-3-47-28-47-18 1-26 9-28 27l-52-2c7-38 36-58 82-57s74 22 75 68l1 82c-1 14 12 18 25 15v27c-30 8-71 5-69-32zm-48 3c29 0 43-24 42-57-32 0-66-3-65 30 0 17 8 27 23 27" id="Y"/><path fill="#333" d="M135-150c-39-12-60 13-60 57V0H25l-1-190h47c2 13-1 29 3 40 6-28 27-53 61-41v41" id="Z"/><g id="h"><use transform="matrix(0.06172839506172839,0,0,0.06172839506172839,0,0)" xlink:href="#X"/><use transform="matrix(0.06172839506172839,0,0,0.06172839506172839,15.987654320987653,0)" xlink:href="#S"/><use transform="matrix(0.06172839506172839,0,0,0.06172839506172839,29.50617283950617,0)" xlink:href="#Y"/><use transform="matrix(0.06172839506172839,0,0,0.06172839506172839,41.85185185185185,0)" xlink:href="#Z"/><use transform="matrix(0.06172839506172839,0,0,0.06172839506172839,50.49382716049382,0)" xlink:href="#T"/></g><path fill="#333" d="M266 0h-40l-56-210L115 0H75L2-248h35L96-30l15-64 43-154h32l59 218 59-218h35" id="aa"/><path fill="#333" d="M33 0v-248h34V0H33" id="ab"/><path fill="#333" d="M16-82v-28h88v28H16" id="ac"/><path fill="#333" d="M63-220v92h138v28H63V0H30v-248h175v28H63" id="ad"/><g id="i"><use transform="matrix(0.06172839506172839,0,0,0.06172839506172839,0,0)" xlink:href="#aa"/><use transform="matrix(0.06172839506172839,0,0,0.06172839506172839,20.925925925925924,0)" xlink:href="#ab"/><use transform="matrix(0.06172839506172839,0,0,0.06172839506172839,27.098765432098762,0)" xlink:href="#ac"/><use transform="matrix(0.06172839506172839,0,0,0.06172839506172839,34.44444444444444,0)" xlink:href="#ad"/><use transform="matrix(0.06172839506172839,0,0,0.06172839506172839,47.96296296296296,0)" xlink:href="#ab"/></g><path fill="#333" d="M85-194c31 0 48 13 60 33l-1-100h32l1 261h-30c-2-10 0-23-3-31C134-8 116 4 85 4 32 4 16-35 15-94c0-66 23-100 70-100zm9 24c-40 0-46 34-46 75 0 40 6 74 45 74 42 0 51-32 51-76 0-42-9-74-50-73" id="ae"/><path fill="#333" d="M84 4C-5 8 30-112 23-190h32v120c0 31 7 50 39 49 72-2 45-101 50-169h31l1 190h-30c-1-10 1-25-2-33-11 22-28 36-60 37" id="af"/><g id="j"><use transform="matrix(0.06172839506172839,0,0,0.06172839506172839,0,0)" xlink:href="#p"/><use transform="matrix(0.06172839506172839,0,0,0.06172839506172839,18.456790123456788,0)" xlink:href="#t"/><use transform="matrix(0.06172839506172839,0,0,0.06172839506172839,30.80246913580247,0)" xlink:href="#ae"/><use transform="matrix(0.06172839506172839,0,0,0.06172839506172839,43.148148148148145,0)" xlink:href="#af"/><use transform="matrix(0.06172839506172839,0,0,0.06172839506172839,55.49382716049382,0)" xlink:href="#w"/><use transform="matrix(0.06172839506172839,0,0,0.06172839506172839,60.37037037037037,0)" xlink:href="#x"/></g><path fill="#333" d="M115-194c53 0 69 39 70 98 0 66-23 100-70 100C84 3 66-7 56-30L54 0H23l1-261h32v101c10-23 28-34 59-34zm-8 174c40 0 45-34 45-75 0-40-5-75-45-74-42 0-51 32-51 76 0 43 10 73 51 73" id="ag"/><g id="k"><use transform="matrix(0.06172839506172839,0,0,0.06172839506172839,0,0)" xlink:href="#p"/><use transform="matrix(0.06172839506172839,0,0,0.06172839506172839,18.456790123456788,0)" xlink:href="#t"/><use transform="matrix(0.06172839506172839,0,0,0.06172839506172839,30.80246913580247,0)" xlink:href="#ag"/><use transform="matrix(0.06172839506172839,0,0,0.06172839506172839,43.148148148148145,0)" xlink:href="#q"/><use transform="matrix(0.06172839506172839,0,0,0.06172839506172839,48.02469135802469,0)" xlink:href="#w"/><use transform="matrix(0.06172839506172839,0,0,0.06172839506172839,52.901234567901234,0)" xlink:href="#x"/></g><path fill="#333" d="M115-194c55 1 70 41 70 98S169 2 115 4C84 4 66-9 55-30l1 105H24l-1-265h31l2 30c10-21 28-34 59-34zm-8 174c40 0 45-34 45-75s-6-73-45-74c-42 0-51 32-51 76 0 43 10 73 51 73" id="ah"/><g id="l"><use transform="matrix(0.06172839506172839,0,0,0.06172839506172839,0,0)" xlink:href="#L"/><use transform="matrix(0.06172839506172839,0,0,0.06172839506172839,14.814814814814813,0)" xlink:href="#ah"/><use transform="matrix(0.06172839506172839,0,0,0.06172839506172839,27.160493827160494,0)" xlink:href="#ah"/><use transform="matrix(0.06172839506172839,0,0,0.06172839506172839,39.50617283950617,0)" xlink:href="#w"/><use transform="matrix(0.06172839506172839,0,0,0.06172839506172839,44.382716049382715,0)" xlink:href="#q"/><use transform="matrix(0.06172839506172839,0,0,0.06172839506172839,49.25925925925926,0)" xlink:href="#r"/><use transform="matrix(0.06172839506172839,0,0,0.06172839506172839,60.37037037037037,0)" xlink:href="#M"/><use transform="matrix(0.06172839506172839,0,0,0.06172839506172839,72.71604938271605,0)" xlink:href="#v"/><use transform="matrix(0.06172839506172839,0,0,0.06172839506172839,78.88888888888889,0)" xlink:href="#q"/><use transform="matrix(0.06172839506172839,0,0,0.06172839506172839,83.76543209876543,0)" xlink:href="#t"/><use transform="matrix(0.06172839506172839,0,0,0.06172839506172839,96.11111111111111,0)" xlink:href="#u"/></g><path fill="#333" d="M232-93c-1 65-40 97-104 97C67 4 28-28 28-90v-158h33c8 89-33 224 67 224 102 0 64-133 71-224h33v155" id="ai"/><path fill="#333" d="M135-143c-3-34-86-38-87 0 15 53 115 12 119 90S17 21 10-45l28-5c4 36 97 45 98 0-10-56-113-15-118-90-4-57 82-63 122-42 12 7 21 19 24 35" id="aj"/><g id="m"><use transform="matrix(0.06172839506172839,0,0,0.06172839506172839,0,0)" xlink:href="#ai"/><use transform="matrix(0.06172839506172839,0,0,0.06172839506172839,15.987654320987653,0)" xlink:href="#aj"/><use transform="matrix(0.06172839506172839,0,0,0.06172839506172839,27.098765432098766,0)" xlink:href="#x"/><use transform="matrix(0.06172839506172839,0,0,0.06172839506172839,39.44444444444444,0)" xlink:href="#s"/></g><path fill="#333" d="M275 0h-61l-44-196L126 0H64L0-248h53L97-49l45-199h58l43 199 44-199h52" id="ak"/><path fill="#333" d="M135-194c52 0 70 43 70 98 0 56-19 99-73 100-30 1-46-15-58-35L72 0H24l1-261h50v104c11-23 29-37 60-37zM114-30c31 0 40-27 40-66 0-37-7-63-39-63s-41 28-41 65c0 36 8 64 40 64" id="al"/><path fill="#333" d="M169-182c-1-43-94-46-97-3 18 66 151 10 154 114 3 95-165 93-204 36-6-8-10-19-12-30l50-8c3 46 112 56 116 5-17-69-150-10-154-114-4-87 153-88 188-35 5 8 8 18 10 28" id="am"/><path fill="#333" d="M190-63c-7 42-38 67-86 67-59 0-84-38-90-98-12-110 154-137 174-36l-49 2c-2-19-15-32-35-32-30 0-35 28-38 64-6 74 65 87 74 30" id="an"/><path fill="#333" d="M147 0L96-86 75-71V0H25v-261h50v150l67-79h53l-66 74L201 0h-54" id="ao"/><path fill="#333" d="M115-3C79 11 28 4 28-45v-112H4v-33h27l15-45h31v45h36v33H77v99c-1 23 16 31 38 25v30" id="ap"/><g id="n"><use transform="matrix(0.04938271604938272,0,0,0.04938271604938272,0,0)" xlink:href="#ak"/><use transform="matrix(0.04938271604938272,0,0,0.04938271604938272,16.39506172839506,0)" xlink:href="#W"/><use transform="matrix(0.04938271604938272,0,0,0.04938271604938272,26.271604938271608,0)" xlink:href="#al"/><use transform="matrix(0.04938271604938272,0,0,0.04938271604938272,37.08641975308642,0)" xlink:href="#am"/><use transform="matrix(0.04938271604938272,0,0,0.04938271604938272,48.93827160493827,0)" xlink:href="#S"/><use transform="matrix(0.04938271604938272,0,0,0.04938271604938272,59.75308641975309,0)" xlink:href="#an"/><use transform="matrix(0.04938271604938272,0,0,0.04938271604938272,69.62962962962963,0)" xlink:href="#ao"/><use transform="matrix(0.04938271604938272,0,0,0.04938271604938272,79.50617283950618,0)" xlink:href="#W"/><use transform="matrix(0.04938271604938272,0,0,0.04938271604938272,89.38271604938272,0)" xlink:href="#ap"/></g><path fill="#333" d="M220-157c-53 9-28 100-34 157h-49v-107c1-27-5-49-29-50C55-147 81-57 75 0H25l-1-190h47c2 12-1 28 3 38 10-53 101-56 108 0 13-22 24-43 59-42 82 1 51 116 57 194h-49v-107c-1-25-5-48-29-50" id="aq"/><path fill="#333" d="M135-194c53 0 70 44 70 98 0 56-19 98-73 100-31 1-45-17-59-34 3 33 2 69 2 105H25l-1-265h48c2 10 0 23 3 31 11-24 29-35 60-35zM114-30c33 0 39-31 40-66 0-38-9-64-40-64-56 0-55 130 0 130" id="ar"/><path fill="#333" d="M114-157C55-157 80-60 75 0H25v-261h50l-1 109c12-26 28-41 61-42 86-1 58 113 63 194h-50c-7-57 23-157-34-157" id="as"/><path fill="#333" d="M135-194c87-1 58 113 63 194h-50c-7-57 23-157-34-157-59 0-34 97-39 157H25l-1-190h47c2 12-1 28 3 38 12-26 28-41 61-42" id="at"/><g id="o"><use transform="matrix(0.06172839506172839,0,0,0.06172839506172839,0,0)" xlink:href="#am"/><use transform="matrix(0.06172839506172839,0,0,0.06172839506172839,14.814814814814813,0)" xlink:href="#aq"/><use transform="matrix(0.06172839506172839,0,0,0.06172839506172839,34.5679012345679,0)" xlink:href="#Y"/><use transform="matrix(0.06172839506172839,0,0,0.06172839506172839,46.913580246913575,0)" xlink:href="#Z"/><use transform="matrix(0.06172839506172839,0,0,0.06172839506172839,55.55555555555555,0)" xlink:href="#ap"/><use transform="matrix(0.06172839506172839,0,0,0.06172839506172839,62.90123456790123,0)" xlink:href="#ar"/><use transform="matrix(0.06172839506172839,0,0,0.06172839506172839,76.41975308641975,0)" xlink:href="#as"/><use transform="matrix(0.06172839506172839,0,0,0.06172839506172839,89.93827160493827,0)" xlink:href="#S"/><use transform="matrix(0.06172839506172839,0,0,0.06172839506172839,103.45679012345678,0)" xlink:href="#at"/><use transform="matrix(0.06172839506172839,0,0,0.06172839506172839,116.9753086419753,0)" xlink:href="#W"/></g></defs></g></svg>